# xmcd
#
# Track frame offsets: 
#        150
#        15895
#        33057
#        53977
#        70179
#        84499
#        107474
#        125596
#        142428
#        161173
#        180083
#
# Disc length: 2706 seconds
#
# Revision: 0
# Processed by: cddbd v1.5.2PL0 Copyright (c) Steve Scherf et al.
# Submitted via: ExactAudioCopy v1.0b1
#
DISCID=870a900b
DTITLE=Janiva Magness - Original
DYEAR=2014
DGENRE=Blues
TTITLE0=Let Me Breathe
TTITLE1=Twice As Strong
TTITLE2=When You Were My King
TTITLE3=I Need A Man
TTITLE4=Everything Is Alright
TTITLE5=With Love
TTITLE6=Mountain
TTITLE7=Who Am I
TTITLE8=Badass
TTITLE9=The Hard Way
TTITLE10=Standing
EXTD=
EXTT0=
EXTT1=
EXTT2=
EXTT3=
EXTT4=
EXTT5=
EXTT6=
EXTT7=
EXTT8=
EXTT9=
EXTT10=
PLAYORDER=
